<mxfile host="app.diagrams.net" modified="2023-07-20T01:44:33.538Z" agent="Mozilla/5.0 (Macintosh; Intel Mac OS X 10_15_7) AppleWebKit/537.36 (KHTML, like Gecko) Chrome/114.0.0.0 Safari/537.36" version="21.6.3" etag="vHJiCAezebBcr5AjgfhP" type="github">
  <diagram name="第 1 页" id="gg0pCgN6_DKK_8A5Cdkl">
    <mxGraphModel>
      <root>
        <mxCell id="0" />
        <mxCell id="1" parent="0" />
      </root>
    </mxGraphModel>
  </diagram>
</mxfile>
